PathFileType	4	(X/Y/Z)	Patient4_TMGait_0pt6_01_left_30.trc.trc
DataRate	CameraRate	NumFrames	NumMarkers	Units	OrigDataRate	OrigDataStartFrame	OrigNumFrames
86.419753086420	86.419753086420	4	33	mm	86.419753086420	106	       141
Frame#	Time	Sacral			L.Shoulder			Chest			R.Shoulder			Neck			R.ASIS			L.ASIS			R.Thigh.Superior			R.Thigh.Lateral			R.Thigh.Inferior			R.Patella			L.Thigh.Superior			L.Thigh.Lateral			L.Thigh.Inferior			L.Patella			L.Shank.Superior			L.Shank.Lateral			L.Shank.Inferior			R.Shank.Superior			R.Shank.Lateral			R.Shank.Inferior			R.Heel			R.Midfoot.Superior			R.Midfoot.Lateral			R.Toe			L.Heel			L.Midfoot.Lateral			L.Midfoot.Superior			L.Toe			L.Elbow			L.Wrist			R.Elbow			R.Wrist			
		X1	Y1	Z1	X2	Y2	Z2	X3	Y3	Z3	X4	Y4	Z4	X5	Y5	Z5	X6	Y6	Z6	X7	Y7	Z7	X8	Y8	Z8	X9	Y9	Z9	X10	Y10	Z10	X11	Y11	Z11	X12	Y12	Z12	X13	Y13	Z13	X14	Y14	Z14	X15	Y15	Z15	X16	Y16	Z16	X17	Y17	Z17	X18	Y18	Z18	X19	Y19	Z19	X20	Y20	Z20	X21	Y21	Z21	X22	Y22	Z22	X23	Y23	Z23	X24	Y24	Z24	X25	Y25	Z25	X26	Y26	Z26	X27	Y27	Z27	X28	Y28	Z28	X29	Y29	Z29	X30	Y30	Z30	X31	Y31	Z31	X32	Y32	Z32	X33	Y33	Z33	

106	37.725000000000	733.090082044250	1019.535312441050	514.513960597543	906.560292655111	1440.124665732417	323.127562034134	1021.430378888631	1368.009120010908	474.584117365283	955.419769667300	1440.235690353679	655.376880652939	901.112081871200	1500.142356604115	478.662766825132	961.183413317129	943.749867993707	618.388808500731	933.080752547663	967.034838228449	346.191081416966	978.343772117536	736.206280597580	589.651011970979	883.162711553653	636.672576464133	646.800809364195	953.127839883430	577.573863533267	566.801209955069	944.198063240249	493.301953395910	570.624867976963	1018.498224398661	793.605048129642	368.387467583482	977.076594180943	667.286994063051	288.011607461908	1087.956170517544	611.604951690960	340.599106226819	1109.842953078075	528.353713291321	331.809289195998	1062.070632305918	452.438549519061	328.368480879425	938.671834798603	369.306069359955	286.379385808976	970.576381593938	242.518084251578	340.528299679700	915.797658263852	406.811997374657	573.813589529657	840.673400152218	302.538577731049	627.850606976543	885.651585813172	208.663397981860	564.302425846917	751.082680337485	44.907599980954	521.340249808825	921.279142943941	96.723845490491	567.246737674243	830.471767676250	37.198586507181	600.322212001516	1038.919382385728	40.450236980545	601.842982292221	812.936328793254	122.967699626532	388.547100327349	875.989168282206	95.580168348892	304.674025962720	974.400018034195	136.027343113546	319.379128961210	1080.644012666748	53.024971751289	286.467659292821	877.573339954153	1079.570455577108	222.163673521218	938.724994698715	826.594619938679	223.944273339319	994.764443401502	1093.292211222495	778.613081585766	1180.088696795392	911.383065393360	754.668084054187	
107	37.736571428571	731.729710270237	1020.253790461488	515.126819237938	906.534461352008	1439.583449433633	322.903537098181	1021.876940986852	1367.182334517150	473.849031436599	957.219049964553	1440.187575339372	654.825265650784	901.886282476099	1499.884353052709	478.197496886770	959.748522365397	943.057035900034	618.195177761777	931.003683664344	967.118124387616	346.279034942155	974.847918578327	735.359298342577	588.833926339161	879.126966724936	636.642404554143	646.712747302456	948.001035157263	577.054128440974	566.354717163043	938.370136894030	492.979803303602	570.431615209111	1016.358879238469	794.529220749111	368.516403200569	975.770527003522	667.791336093961	288.108186139661	1086.442122949574	612.839310308529	341.412731974053	1109.822198268724	531.616034671572	332.776143676718	1066.332914380888	454.989653471808	328.782164598174	949.429279868044	364.263765653493	285.268115715490	989.287532246636	239.454975295805	339.303713145169	909.709230798140	406.601206232269	573.625518195198	834.339963642139	302.542636979213	627.751102873631	879.054429946697	208.558073542538	564.194776821448	744.158235792810	44.861157910589	521.376208921966	914.316686322844	96.697500208786	567.232242175235	823.464049249817	37.195959841037	600.317660840532	1031.895051125359	40.407614259959	601.910747952506	839.966405145888	109.183289306673	385.510281401966	905.398070043264	86.890524296519	302.043045420148	1000.669831117824	133.606419139990	317.799716282682	1112.432959930614	58.172020740061	285.430629246553	869.190368336105	1079.435152516485	223.009622708974	919.019346384361	824.204745015189	226.115566501378	1004.687919452551	1094.910333113429	778.521637169532	1200.266860503748	924.803899492013	752.055882342639	
108	37.748142857143	730.460075276062	1020.810051347036	515.622845572925	906.535058247938	1438.936941150617	322.573683201152	1022.316655497873	1366.235538458559	473.024620712403	958.946226172567	1439.971760952850	654.163396746989	902.627777617109	1499.487846102295	477.645549987285	958.377543212119	942.248124489356	617.869405938843	929.060106862142	967.024324299622	346.159137554906	971.604441944819	734.451413368795	587.924251081834	875.390446015792	636.501185414231	646.527562166858	943.184271886765	576.480855499154	565.799663725905	932.860328680400	492.549953431953	570.130980670819	1013.944746655339	794.829734532045	368.598497504272	973.964821721780	667.792390607595	288.123967312287	1084.121629054855	613.244214738475	342.501321500350	1108.915210276176	534.284879858447	334.136506964588	1069.812825130104	457.317277715018	329.479128466713	960.213326026988	359.293012176239	283.985699965257	1007.776065568595	237.063243651965	338.231392383449	903.872151813674	406.253150183130	573.342074089083	828.217394239825	302.463354922474	627.599828057727	872.546243034180	208.347183731034	564.008543582238	737.219932279450	44.749059659451	521.417017964821	907.330713396194	96.657196635808	567.192062246822	816.444564220922	37.176892888024	600.325929002659	1024.869550538356	40.388145912070	601.964568946887	867.433063360782	96.590141019349	382.057476942965	935.337966348454	79.414835053681	299.407564705526	1026.933240782254	132.234735912207	316.589266306804	1143.861786208660	64.657793365008	285.543697540387	860.776379046299	1079.489749824539	223.574609301277	899.929972940142	822.614079863612	228.221468807589	1014.227712522171	1096.578881902836	778.222181116093	1219.438013584148	939.086719956628	749.197439909458	
109	37.759714285714	729.306803330175	1021.200308896594	516.006182940055	906.552722274451	1438.205098738020	322.134453269779	1022.737729910282	1365.193047393262	472.113349838406	960.576738920170	1439.604793322700	653.392200881579	903.327236855190	1498.967348937292	477.015424108858	957.105113885319	941.343982384737	617.417369406516	927.268321582441	966.766496889489	345.845759228290	968.648961398003	733.481324336190	586.961454138161	871.963310093359	636.252348846006	646.247223934197	938.697487536022	575.845829997334	565.153546511503	927.684860940924	492.009703980301	569.719070999825	1011.306923976483	794.534290874550	368.645878757602	971.741004771207	667.351085938104	288.031711575367	1081.115937592962	612.893908083081	343.806286973303	1107.241327672994	536.386846912766	335.819447834112	1072.540223777878	459.437798236222	330.383523974940	970.853541464303	354.568970563275	282.601506009208	1025.750080202071	235.457156567186	337.349920612085	898.300310214288	405.769542188369	572.963776865437	822.314639340584	302.306690169515	627.398779423629	866.130548700708	208.032729875291	563.747488865936	730.262407693505	44.578517575981	521.462574887814	900.319390968405	96.603614980925	567.129247386934	809.413474933265	37.142566422033	600.351221665501	1017.843702616546	40.392365401770	602.005209730585	894.868628739045	85.490295529161	378.414304274968	965.261064455398	73.344380648045	296.930974816212	1052.736299256331	131.999234503845	315.790422339271	1174.382535906208	72.423100197532	286.755444435314	852.409140081534	1079.742647251283	223.878048771281	881.556117235903	821.744730658312	230.249785464348	1023.383814394294	1098.284579384762	777.699944934780	1237.488843140568	954.135379828992	746.101329254531	
